<?xml version="1.0" encoding="UTF-8"?>
<svg version="1.1" viewBox="0 0 100 100" xmlns="http://www.w3.org/2000/svg">
 <path d="m50 5c-24.794 0-45 20.206-45 45s20.206 45 45 45 45-20.206 45-45-20.206-45-45-45zm0 10c19.389 0 35 15.611 35 35s-15.611 35-35 35-35-15.611-35-35 15.611-35 35-35z" color="#000000" fill="#ff8080" stroke-linecap="round" stroke-linejoin="round" style="-inkscape-stroke:none"/>
 <path d="m50 5c-34.4 0-56.171 37.708-38.971 67.5a5 5 0 0 1 1.8301-6.8301 5 5 0 0 1 6.8301 1.8301c-13.592-23.542 3.127-52.5 30.311-52.5a5 5 0 0 0 5-5 5 5 0 0 0-5-5zm-30.311 62.5a5 5 0 0 1 0.26758 0.53516 5 5 0 0 0-0.26758-0.53516zm-8.6602 5a5 5 0 0 0 0.96289 1.1875 5 5 0 0 1-0.96289-1.1875zm8.9316-4.4531a5 5 0 0 1 0.20117 0.5625 5 5 0 0 0-0.20117-0.5625zm0.20117 0.5625a5 5 0 0 1 0.12891 0.56641 5 5 0 0 0-0.12891-0.56641zm0.13672 0.61719a5 5 0 0 1 0.054688 0.56055 5 5 0 0 0-0.054688-0.56055zm0.056641 0.57617a5 5 0 0 1-0.013672 0.58789 5 5 0 0 0 0.013672-0.58789zm-0.015625 0.61524a5 5 0 0 1-0.080078 0.5625 5 5 0 0 0 0.080078-0.5625zm-0.085938 0.5957a5 5 0 0 1-0.14844 0.55469 5 5 0 0 0 0.14844-0.55469zm-0.16211 0.5918a5 5 0 0 1-0.20508 0.51367 5 5 0 0 0 0.20508-0.51367zm-0.22461 0.55273a5 5 0 0 1-0.2832 0.51367 5 5 0 0 0 0.2832-0.51367zm-0.2832 0.51367a5 5 0 0 1-0.33398 0.46484 5 5 0 0 0 0.33398-0.46484zm-0.36914 0.50977a5 5 0 0 1-0.39258 0.42383 5 5 0 0 0 0.39258-0.42383zm-0.39258 0.42383a5 5 0 0 1-0.42383 0.36328 5 5 0 0 0 0.42383-0.36328zm-6.7559 0.14258a5 5 0 0 0 1.1934 0.77734 5 5 0 0 1-1.1934-0.77734zm6.2637 0.27148a5 5 0 0 1-0.4707 0.31055 5 5 0 0 0 0.4707-0.31055zm-0.4707 0.31055a5 5 0 0 1-1.4238 0.54688 5 5 0 0 0 1.4238-0.54688zm-4.4434 0.26172a5 5 0 0 0 1.3359 0.35938 5 5 0 0 1-1.3359-0.35938zm2.9141 0.30273a5 5 0 0 1-1.4219 0.074219 5 5 0 0 0 1.4219-0.074219z" color="#000000" fill="#5fbcd3" stroke-linecap="round" stroke-linejoin="round"/>
</svg>
